<svg viewBox="0 0 18 18" fill="none" xmlns="http://www.w3.org/2000/svg">
<path id="Shape" d="M2.829 18.0003C2.07895 17.9995 1.35984 17.7012 0.829472 17.1708C0.299104 16.6404 0.000794128 15.9213 0 15.1713L0 4.88626C0.000734166 4.18086 0.264697 3.50112 0.740222 2.9801C1.21575 2.45907 1.8686 2.13427 2.571 2.06926V0.771256C2.571 0.566641 2.65228 0.370407 2.79697 0.225723C2.94165 0.0810387 3.13789 -0.000244141 3.3425 -0.000244141C3.54711 -0.000244141 3.74335 0.0810387 3.88803 0.225723C4.03272 0.370407 4.114 0.566641 4.114 0.771256V2.05726H8.229V0.771256C8.229 0.566641 8.31028 0.370407 8.45497 0.225723C8.59965 0.0810387 8.79589 -0.000244141 9.0005 -0.000244141C9.20511 -0.000244141 9.40135 0.0810387 9.54603 0.225723C9.69072 0.370407 9.772 0.566641 9.772 0.771256V2.05726H13.887V0.771256C13.887 0.566641 13.9683 0.370407 14.113 0.225723C14.2577 0.0810387 14.4539 -0.000244141 14.6585 -0.000244141C14.8631 -0.000244141 15.0593 0.0810387 15.204 0.225723C15.3487 0.370407 15.43 0.566641 15.43 0.771256V2.07126C16.1319 2.13647 16.7842 2.46109 17.2595 2.98167C17.7347 3.50225 17.9988 4.18136 18 4.88626V15.1713C17.9992 15.9213 17.7009 16.6404 17.1705 17.1708C16.6402 17.7012 15.9211 17.9995 15.171 18.0003H2.829ZM1.543 4.88626V15.1713C1.54353 15.5122 1.67919 15.839 1.92024 16.08C2.1613 16.3211 2.48809 16.4567 2.829 16.4573H15.171C15.5119 16.4567 15.8387 16.3211 16.0798 16.08C16.3208 15.839 16.4565 15.5122 16.457 15.1713V4.88626C16.4565 4.54535 16.3208 4.21856 16.0798 3.9775C15.8387 3.73644 15.5119 3.60078 15.171 3.60026H2.829C2.48809 3.60078 2.1613 3.73644 1.92024 3.9775C1.67919 4.21856 1.54353 4.54535 1.543 4.88626ZM12.087 10.0293C12.087 9.82574 12.1474 9.62679 12.2604 9.45757C12.3735 9.28836 12.5342 9.15647 12.7222 9.07858C12.9102 9.0007 13.1171 8.98032 13.3167 9.02003C13.5164 9.05973 13.6997 9.15773 13.8436 9.30164C13.9875 9.44555 14.0855 9.6289 14.1252 9.82851C14.1649 10.0281 14.1446 10.235 14.0667 10.423C13.9888 10.6111 13.8569 10.7718 13.6877 10.8848C13.5185 10.9979 13.3195 11.0583 13.116 11.0583C12.9808 11.0584 12.8469 11.0319 12.7219 10.9802C12.597 10.9286 12.4834 10.8528 12.3877 10.7572C12.2921 10.6617 12.2162 10.5482 12.1644 10.4233C12.1126 10.2984 12.086 10.1645 12.086 10.0293H12.087ZM7.972 10.0293C7.9718 9.82565 8.03201 9.62657 8.145 9.4572C8.25799 9.28783 8.41869 9.15578 8.60676 9.07778C8.79482 8.99977 9.0018 8.97931 9.2015 9.01898C9.4012 9.05865 9.58464 9.15667 9.72861 9.30064C9.87258 9.44461 9.9706 9.62805 10.0103 9.82775C10.0499 10.0275 10.0295 10.2344 9.95148 10.4225C9.87347 10.6106 9.74143 10.7713 9.57206 10.8843C9.40269 10.9972 9.2036 11.0575 9 11.0573C8.72727 11.0573 8.46569 10.949 8.27274 10.7562C8.07979 10.5635 7.97127 10.302 7.971 10.0293H7.972ZM3.858 10.0293C3.858 9.82574 3.91835 9.62679 4.03142 9.45757C4.14449 9.28836 4.30519 9.15647 4.49322 9.07858C4.68124 9.0007 4.88814 8.98032 5.08775 9.02003C5.28735 9.05973 5.47071 9.15773 5.61461 9.30164C5.75852 9.44555 5.85652 9.6289 5.89623 9.82851C5.93593 10.0281 5.91556 10.235 5.83767 10.423C5.75979 10.6111 5.6279 10.7718 5.45868 10.8848C5.28946 10.9979 5.09052 11.0583 4.887 11.0583C4.75179 11.0584 4.61787 11.0319 4.49291 10.9802C4.36795 10.9286 4.2544 10.8528 4.15874 10.7572C4.06308 10.6617 3.9872 10.5482 3.93542 10.4233C3.88365 10.2984 3.857 10.1645 3.857 10.0293H3.858Z" fill="#27AE60"/>
</svg>
