<svg version="1.1" xmlns="http://www.w3.org/2000/svg" xmlns:xlink="http://www.w3.org/1999/xlink" x="0px" y="0px" viewBox="0 0 256 256" enable-background="new 0 0 256 256" xml:space="preserve">
<g><g><g><path fill="#000000" d="M116.6,10.5C70.2,15.2,31,46.2,16.2,90c-5,14.7-6.5,25.3-6.1,41.7c0.4,12,1.5,19.8,4.5,29.9c11.7,39.3,43.6,70.2,83.2,80.6c9.4,2.5,15.7,3.4,26.5,3.7c17.3,0.5,32.1-2,47.6-8.3c58.5-23.6,88.2-88.8,67.6-148.4c-3.9-11.4-10-22.6-17.4-32.5c-4.5-6.1-17-18.6-23-23C175.2,16.1,145.2,7.6,116.6,10.5z M146.1,21c54.9,9.5,94.3,59.5,90.1,114.7c-3.8,50-40.6,90.9-89.6,99.6c-7.5,1.3-23,1.8-30.4,0.9c-47.7-5.6-84.9-39.6-95-86.7c-1.5-6.9-1.6-8.4-1.5-21.6c0-12.4,0.2-14.9,1.3-20.3c4.7-21.8,13.8-39.3,28.4-54.4c10.1-10.5,18.6-16.8,31-22.9c11.4-5.6,23.6-9.1,36.8-10.6C124.3,19.1,138.2,19.6,146.1,21z"/><path fill="#000000" d="M80.2,78.2c-1.6,0.6-2.5,2.4-2.5,4.5c0,1.4,3.4,5.1,21.5,23.2c11.8,11.8,21.5,21.8,21.5,22.1c0,0.3-9.7,10.3-21.5,22.1c-20.2,20.2-21.5,21.7-21.5,23.6c0,2.7,1.9,4.7,4.7,4.7c1.9,0,3.7-1.7,23.9-21.8l21.8-21.8l21.8,21.8c22.9,22.9,23,23,26.2,21.2c1.3-0.7,2.4-3.8,1.9-5.2c-0.2-0.5-10-10.7-21.9-22.6l-21.6-21.7l21.3-21.3c11.7-11.8,21.6-22.1,21.9-23c1.2-3.2-1.8-6.8-5.1-6.1c-1.1,0.3-8.9,7.7-23.3,22l-21.7,21.6l-22-22C91.3,85.1,83.5,77.6,82.7,77.7C82.1,77.7,80.9,77.9,80.2,78.2z"/></g></g></g>
</svg>