<svg viewBox="0 0 18 18" fill="none" xmlns="http://www.w3.org/2000/svg">
<path id="Fill 1171" d="M9 18C7.21997 18 5.47991 17.4722 3.99987 16.4832C2.51983 15.4943 1.36628 14.0887 0.685088 12.4442C0.00389957 10.7996 -0.17433 8.99002 0.172937 7.24419C0.520203 5.49836 1.37737 3.89472 2.63604 2.63604C3.89472 1.37737 5.49836 0.520203 7.24419 0.172937C8.99002 -0.17433 10.7996 0.00389957 12.4442 0.685088C14.0887 1.36628 15.4943 2.51983 16.4832 3.99987C17.4722 5.47991 18 7.21997 18 9C17.9974 11.3861 17.0483 13.6738 15.361 15.361C13.6738 17.0483 11.3861 17.9974 9 18ZM6.763 9.75C6.79214 11.3915 7.06892 13.0192 7.584 14.578C7.76591 15.1327 8.04194 15.6519 8.4 16.113C8.676 16.433 8.878 16.5 9 16.5C9.122 16.5 9.324 16.433 9.6 16.113C9.95842 15.652 10.2348 15.1328 10.417 14.578C10.9321 13.0192 11.2089 11.3915 11.238 9.75H6.763ZM12.738 9.75C12.7075 11.5664 12.4 13.3674 11.826 15.091C11.7001 15.4413 11.5514 15.783 11.381 16.114C12.7511 15.6554 13.9595 14.8109 14.8611 13.6819C15.7626 12.5529 16.3189 11.1876 16.463 9.75H12.738ZM1.538 9.75C1.68297 11.1873 2.23956 12.5522 3.14099 13.6811C4.04242 14.8099 5.2504 15.6547 6.62 16.114C6.44958 15.783 6.30093 15.4413 6.175 15.091C5.60026 13.3676 5.29237 11.5665 5.262 9.75H1.536H1.538ZM11.383 1.887C11.5534 2.21796 11.7021 2.55969 11.828 2.91C12.402 4.63357 12.7095 6.43464 12.74 8.251H16.465C16.3209 6.81302 15.7644 5.44729 14.8625 4.3181C13.9606 3.18891 12.7516 2.34434 11.381 1.886L11.383 1.887ZM9 1.5C8.879 1.5 8.676 1.567 8.4 1.887C8.04176 2.34773 7.7654 2.86662 7.583 3.421C7.06822 4.98024 6.79177 6.60824 6.763 8.25H11.238C11.2089 6.60819 10.9321 4.98018 10.417 3.421C10.2346 2.86662 9.95825 2.34773 9.6 1.887C9.324 1.567 9.121 1.5 9 1.5ZM6.619 1.886C5.24921 2.3452 4.04102 3.1899 3.13941 4.31873C2.23779 5.44757 1.68105 6.81259 1.536 8.25H5.262C5.29219 6.43394 5.59974 4.63315 6.174 2.91C6.29988 2.55935 6.44853 2.21728 6.619 1.886Z" fill="#27AE60"/>
</svg>
