<svg  viewBox="0 0 18 18" fill="none" xmlns="http://www.w3.org/2000/svg">
<path id="Subtract" fill-rule="evenodd" clip-rule="evenodd" d="M0.858467 17.7931C1.09553 17.9231 1.36122 17.9921 1.63161 17.9939C1.85535 17.993 2.07653 17.9464 2.28161 17.8569L4.73461 16.8059C6.62393 17.8428 8.82387 18.1633 10.9305 17.7085C13.0371 17.2537 14.9089 16.0543 16.2022 14.3304C17.4956 12.6065 18.1236 10.4739 17.971 8.32417C17.8184 6.17446 16.8954 4.15195 15.3715 2.62805C13.8476 1.10415 11.8251 0.181147 9.67539 0.0285412C7.52567 -0.124065 5.39306 0.503967 3.66916 1.79731C1.94527 3.09066 0.745813 4.96249 0.291056 7.06909C-0.163702 9.17568 0.156767 11.3756 1.19361 13.2649L0.142613 15.7179C0.0342176 15.9636 -0.0105981 16.2326 0.0122953 16.5002C0.0351887 16.7678 0.125055 17.0252 0.273613 17.2489C0.420416 17.476 0.621403 17.663 0.858467 17.7931ZM5.00647 10.2561C5.00647 9.84184 5.34226 9.50606 5.75647 9.50606H12.2565C12.6707 9.50606 13.0065 9.84184 13.0065 10.2561C13.0065 10.6703 12.6707 11.0061 12.2565 11.0061H5.75647C5.34226 11.0061 5.00647 10.6703 5.00647 10.2561ZM5.75647 6.50606C5.34226 6.50606 5.00647 6.84184 5.00647 7.25606C5.00647 7.67027 5.34226 8.00606 5.75647 8.00606H8.25647C8.67068 8.00606 9.00647 7.67027 9.00647 7.25606C9.00647 6.84184 8.67068 6.50606 8.25647 6.50606H5.75647Z" fill="white"/>
</svg>
