<svg  viewBox="0 0 16 18" fill="none" xmlns="http://www.w3.org/2000/svg">
<path id="Fill 901" d="M3.068 17.5004C2.39519 17.5037 1.74631 17.2509 1.253 16.7934C1.01082 16.5723 0.817287 16.3033 0.684723 16.0034C0.552159 15.7035 0.483462 15.3793 0.483002 15.0514C0.496471 14.4711 0.712171 13.9137 1.09285 13.4755C1.47353 13.0373 1.99528 12.7458 2.568 12.6514L4.241 12.3324V4.10037C4.24964 3.60709 4.4283 3.13191 4.74678 2.75513C5.06526 2.37834 5.50405 2.12304 5.989 2.03237L12.755 0.555371C12.9226 0.519022 13.0935 0.500585 13.265 0.500371C13.8454 0.485023 14.4082 0.700216 14.8302 1.09885C15.2523 1.49748 15.4992 2.04709 15.517 2.62737V12.8794C15.5044 13.4682 15.2861 14.0341 14.9 14.4789C14.5139 14.9236 13.9843 15.2192 13.403 15.3144L13.358 15.3214C13.1876 15.3538 13.0145 15.3702 12.841 15.3704C12.1678 15.3739 11.5186 15.1211 11.025 14.6634C10.7831 14.4423 10.5899 14.1734 10.4575 13.8737C10.3251 13.574 10.2565 13.25 10.256 12.9224C10.2694 12.3422 10.485 11.785 10.8655 11.3468C11.2459 10.9086 11.7675 10.617 12.34 10.5224L14.014 10.2004V4.93537L5.745 6.73537V15.0064C5.73238 15.5951 5.51406 16.1609 5.12792 16.6055C4.74177 17.05 4.21217 17.3454 3.631 17.4404L3.587 17.4474C3.41605 17.4813 3.24228 17.499 3.068 17.5004ZM4.241 13.7804L2.863 14.0434C2.62141 14.0815 2.40091 14.2034 2.24006 14.3877C2.0792 14.5719 1.98821 14.8068 1.983 15.0514C1.99111 15.3324 2.1105 15.5986 2.31491 15.7916C2.51932 15.9846 2.79201 16.0884 3.073 16.0804C3.14616 16.0802 3.21915 16.0731 3.291 16.0594L3.335 16.0524C3.58376 16.011 3.81032 15.8843 3.97569 15.6939C4.14105 15.5035 4.23487 15.2615 4.241 15.0094V13.7804ZM14.013 11.6514L12.635 11.9144C12.3938 11.9528 12.1738 12.0748 12.0134 12.2591C11.8531 12.4434 11.7627 12.6782 11.758 12.9224C11.7661 13.2028 11.8851 13.4686 12.0888 13.6615C12.2926 13.8544 12.5645 13.9586 12.845 13.9514C12.9182 13.9512 12.9911 13.9441 13.063 13.9304L13.106 13.9234C13.3551 13.8822 13.582 13.7554 13.7476 13.5648C13.9132 13.3742 14.0071 13.1318 14.013 12.8794V11.6514ZM13.259 1.92237C13.2025 1.92256 13.1462 1.9286 13.091 1.94037L6.328 3.41637C6.16692 3.44735 6.02128 3.53247 5.91523 3.65761C5.80919 3.78275 5.74912 3.94039 5.745 4.10437V5.27537L14.014 3.47537V2.62837C14.0072 2.43491 13.9241 2.25201 13.7828 2.1197C13.6415 1.98738 13.4535 1.91643 13.26 1.92237H13.259Z" fill="#27AE60"/>
</svg>
