<svg style="enable-background:new 0 0 512 512;" version="1.1" viewBox="0 0 512 512" xml:space="preserve" xmlns="http://www.w3.org/2000/svg" xmlns:xlink="http://www.w3.org/1999/xlink"><g id="Layer_1"/><g id="Layer_2"><g><path class="st0" d="M43.5,482.5h108.54c0.54,0,1.07-0.03,1.6-0.08c0.39-0.04,0.78-0.11,1.17-0.17c0.13-0.02,0.26-0.03,0.39-0.06    c0.46-0.09,0.91-0.21,1.36-0.34c0.05-0.01,0.1-0.02,0.15-0.04c0.45-0.14,0.9-0.3,1.33-0.48c0.04-0.02,0.09-0.03,0.14-0.05    c0.42-0.17,0.82-0.37,1.21-0.57c0.07-0.03,0.14-0.06,0.2-0.1c0.37-0.2,0.72-0.41,1.07-0.64c0.09-0.06,0.19-0.11,0.28-0.17    c0.33-0.22,0.65-0.47,0.96-0.71c0.1-0.08,0.2-0.14,0.29-0.22c0.41-0.33,0.8-0.69,1.17-1.06l246.98-246.98    c0.02-0.02,0.04-0.04,0.07-0.06s0.04-0.04,0.06-0.07l58.92-58.92v0c5.81-5.81,9.01-13.53,9.01-21.75c0-8.21-3.2-15.94-9.01-21.74    l-83.7-83.69c-11.99-11.99-31.5-11.99-43.49,0l-58.96,58.96c-0.01,0.01-0.02,0.01-0.02,0.02s-0.01,0.02-0.02,0.02l-251.01,251    c-0.37,0.37-0.72,0.76-1.05,1.16c-0.09,0.1-0.16,0.22-0.24,0.32c-0.24,0.31-0.48,0.61-0.69,0.94c-0.07,0.1-0.12,0.2-0.18,0.3    c-0.22,0.34-0.43,0.69-0.63,1.05c-0.04,0.07-0.07,0.15-0.1,0.22c-0.2,0.39-0.4,0.79-0.57,1.2c-0.02,0.05-0.04,0.1-0.06,0.15    c-0.17,0.43-0.34,0.87-0.47,1.32c-0.02,0.05-0.03,0.11-0.04,0.16c-0.13,0.44-0.25,0.89-0.34,1.35c-0.03,0.13-0.04,0.27-0.06,0.4    c-0.07,0.38-0.13,0.76-0.17,1.15c-0.05,0.53-0.08,1.06-0.08,1.6V466.5C27.5,475.34,34.66,482.5,43.5,482.5z M59.5,450.5v-77.95    l235.03-235.02l81.93,81.93L145.41,450.5H59.5z M363.94,68.12l81.93,81.92l-46.79,46.79l-81.93-81.93L363.94,68.12z"/></g></g></svg>